<svg width="32" height="32" viewBox="0 0 32 32" fill="none" xmlns="http://www.w3.org/2000/svg">
<g clip-path="url(#clip0_54_727)">
<circle cx="16" cy="16" r="16" fill="white"/>
<path d="M9 25V23H15V19H13C11.6167 19 10.4375 18.5125 9.4625 17.5375C8.4875 16.5625 8 15.3833 8 14C8 13 8.275 12.0792 8.825 11.2375C9.375 10.3958 10.1167 9.78333 11.05 9.4C11.2 8.15 11.7458 7.10417 12.6875 6.2625C13.6292 5.42083 14.7333 5 16 5C17.2667 5 18.3708 5.42083 19.3125 6.2625C20.2542 7.10417 20.8 8.15 20.95 9.4C21.8833 9.78333 22.625 10.3958 23.175 11.2375C23.725 12.0792 24 13 24 14C24 15.3833 23.5125 16.5625 22.5375 17.5375C21.5625 18.5125 20.3833 19 19 19H17V23H23V25H9ZM13 17H19C19.8333 17 20.5417 16.7083 21.125 16.125C21.7083 15.5417 22 14.8333 22 14C22 13.4 21.8292 12.85 21.4875 12.35C21.1458 11.85 20.7 11.4833 20.15 11.25L19.1 10.8L18.95 9.65C18.85 8.9 18.5208 8.27083 17.9625 7.7625C17.4042 7.25417 16.75 7 16 7C15.25 7 14.5958 7.25417 14.0375 7.7625C13.4792 8.27083 13.15 8.9 13.05 9.65L12.9 10.8L11.85 11.25C11.3 11.4833 10.8542 11.85 10.5125 12.35C10.1708 12.85 10 13.4 10 14C10 14.8333 10.2917 15.5417 10.875 16.125C11.4583 16.7083 12.1667 17 13 17Z" fill="url(#paint0_linear_54_727)"/>
</g>
<defs>
<linearGradient id="paint0_linear_54_727" x1="16" y1="5" x2="16" y2="25" gradientUnits="userSpaceOnUse">
<stop stop-color="#088E15"/>
<stop offset="1" stop-color="#155423"/>
</linearGradient>
<clipPath id="clip0_54_727">
<rect width="32" height="32" fill="white"/>
</clipPath>
</defs>
</svg>
