<svg width="177" height="46" viewBox="0 0 177 46" fill="none" xmlns="http://www.w3.org/2000/svg">
<path d="M14.9229 7.55983C15.5009 8.89258 14.6601 13.3706 14.6601 13.3706C14.6601 13.3706 10.7193 11.025 10.1413 9.69224C9.56326 8.35948 10.1413 6.81348 11.4549 6.22707C12.7685 5.64066 14.3449 6.22707 14.9229 7.55983Z" fill="#64892F"/>
<path d="M15.9212 13.6372H14.555C14.555 11.3449 15.8161 7.45322 20.8604 7.45322V8.83928C16.289 8.83928 15.9212 13.2107 15.9212 13.6372Z" fill="#947151"/>
<path d="M15.2381 13.3707C11.4023 9.42571 0 9.26578 0 20.5676C0 27.7111 8.30214 38 11.9278 38C13.5567 38 14.1346 36.9338 15.133 36.9338C16.0788 36.9338 16.3941 37.9467 18.4959 37.9467C22.1215 38 30.4762 27.7644 30.4762 20.5676C30.4762 9.26578 19.0739 9.42571 15.2381 13.3707Z" fill="#8CC63E"/>
<path d="M17.9219 35.625C17.8802 36.5729 16.7292 37.151 14.4688 37.3594C14.3854 37.526 14.3854 37.7708 14.4688 38.0938C16.4375 38.0312 17.8333 38 18.6562 38C19.9583 38 21.4427 38.0312 23.1094 38.0938C23.1927 37.7708 23.1927 37.526 23.1094 37.3594C20.8281 37.151 19.6771 36.5729 19.6562 35.625C19.5521 32.3854 19.5 29.5625 19.5 27.1562C19.5 23.8646 19.5417 20.9531 19.625 18.4219H19.7812L27.4062 37.6094H27.5625L34.6875 18.7969H34.8281C34.9323 21.9323 34.9844 24.7188 34.9844 27.1562C34.9844 30.5417 34.9323 33.4323 34.8281 35.8281C34.8073 36.099 34.6823 36.3333 34.4531 36.5312C34.2344 36.7188 33.9062 36.8698 33.4688 36.9844C33.0312 37.0885 32.6615 37.1615 32.3594 37.2031C32.0573 37.2448 31.6719 37.2865 31.2031 37.3281C31.1198 37.4948 31.1198 37.7396 31.2031 38.0625C32.974 38 34.7865 37.9688 36.6406 37.9688C38.8594 37.9688 40.9948 38 43.0469 38.0625C43.1302 37.875 43.1302 37.6302 43.0469 37.3281C39.5885 37.1198 37.849 36.6302 37.8281 35.8594C37.7031 32.5885 37.6406 29.3021 37.6406 26C37.6406 22.8021 37.6823 19.8906 37.7656 17.2656C37.7865 16.4948 39.526 16.0052 42.9844 15.7969C43.0677 15.4948 43.0677 15.25 42.9844 15.0625C40.9323 15.125 38.2031 15.1562 34.7969 15.1562L28.1406 32.5312L21.7344 15.1562C19.1927 15.1562 16.9427 15.1146 14.9844 15.0312C14.8802 15.2396 14.8802 15.4375 14.9844 15.625C16.224 15.8021 17.0312 16.0625 17.4062 16.4062C17.7917 16.7396 17.9948 17.5156 18.0156 18.7344C18.0885 21.2969 18.125 23.7188 18.125 26C18.125 29.1562 18.0573 32.3646 17.9219 35.625ZM17.2812 35.625C17.4167 32.3438 17.4844 29.1354 17.4844 26C17.4844 23.7188 17.4479 21.2969 17.375 18.7344C17.3542 17.776 17.1667 17.1615 16.8125 16.8906C16.4688 16.6094 15.7188 16.3906 14.5625 16.2344C14.2708 15.599 14.2812 14.974 14.5938 14.3594C16.9896 14.4635 20.1042 14.5156 23.9375 14.5156L29.0625 28.2031L34.3438 14.5156C37.1354 14.5156 40.2188 14.474 43.5938 14.3906C43.8021 15.0677 43.8229 15.7396 43.6562 16.4062C41.3542 16.6354 40.1927 16.9427 40.1719 17.3281C40.0781 19.2865 40.0312 22.1771 40.0312 26C40.0312 29.9479 40.099 33.2135 40.2344 35.7969C40.2552 36.1823 41.4167 36.4896 43.7188 36.7188C43.8854 37.3854 43.8646 38.0573 43.6562 38.7344C40.2812 38.651 38.3177 38.6094 37.7656 38.6094C36.9323 38.6094 34.599 38.651 30.7656 38.7344C30.5052 38.0052 30.5052 37.3333 30.7656 36.7188C33.026 36.4896 34.1667 36.1927 34.1875 35.8281C34.2917 33.3906 34.3438 30.5 34.3438 27.1562C34.3438 24.5521 34.3333 22.6406 34.3125 21.4219L28 38.25H26.9531L20.1406 21.0781V27.1562C20.1406 29.5625 20.1927 32.3854 20.2969 35.625C20.3177 36.1875 21.4583 36.5625 23.7188 36.75C23.9792 37.375 23.9792 38.0469 23.7188 38.7656C20.6042 38.6406 17.3698 38.6406 14.0156 38.7656C13.7656 38.0469 13.7656 37.375 14.0156 36.75C16.1719 36.5417 17.2604 36.1667 17.2812 35.625Z" fill="#CE0000"/>
<path d="M49.6562 26.6406C50.1458 26.724 50.5312 26.9167 50.8125 27.2188C51.1042 27.5104 51.25 27.8854 51.25 28.3438C51.25 28.8958 51.0677 29.3542 50.7031 29.7188C50.3385 30.0729 49.8594 30.25 49.2656 30.25C48.651 30.25 48.0938 30.0312 47.5938 29.5938C47.0938 29.1562 46.8438 28.5365 46.8438 27.7344C46.8438 26.3698 47.4896 25.2656 48.7812 24.4219C50.0833 23.5781 51.7812 23.1562 53.875 23.1562C55.8646 23.1562 57.2604 23.5573 58.0625 24.3594C58.875 25.151 59.2812 26.4896 59.2812 28.375V33.8438L60.2812 33.8125C61.1354 33.875 61.7292 34.2812 62.0625 35.0312L61.5625 35.8906C61.2396 36.3802 60.9688 36.7604 60.75 37.0312C60.5417 37.2917 60.2396 37.5885 59.8438 37.9219C59.4479 38.2552 58.9844 38.4948 58.4531 38.6406C57.9219 38.7865 57.3021 38.8594 56.5938 38.8594C55.7188 38.8594 55.0573 38.5312 54.6094 37.875C53.4844 38.6875 52.0156 39.0938 50.2031 39.0938C49.4115 39.0938 48.7344 38.9688 48.1719 38.7188C47.6198 38.4792 47.2135 38.1562 46.9531 37.75C46.7031 37.3438 46.526 36.9635 46.4219 36.6094C46.3177 36.2552 46.2656 35.8958 46.2656 35.5312C46.2656 34 46.7812 32.8542 47.8125 32.0938C48.8438 31.3333 50.9271 30.5521 54.0625 29.75V28.0469C54.0625 27.2135 53.8854 26.6042 53.5312 26.2188C53.1875 25.8333 52.7396 25.6406 52.1875 25.6406C51.0104 25.6406 50.1667 25.974 49.6562 26.6406ZM54.7031 31.2188V34.4844C53.7031 35.8073 52.6823 36.4688 51.6406 36.4688C51.0365 36.4688 50.5417 36.3229 50.1562 36.0312C49.7812 35.7396 49.5938 35.3281 49.5938 34.7969C49.5938 33.9427 49.9427 33.2396 50.6406 32.6875C51.349 32.1354 52.7031 31.6458 54.7031 31.2188ZM54.0625 34.2812V32.375C52.5521 32.9271 51.7969 33.7344 51.7969 34.7969C51.7969 35.2448 51.9583 35.5573 52.2812 35.7344C52.8333 35.5365 53.4271 35.0521 54.0625 34.2812ZM49.2656 28.875C48.901 28.875 48.6458 28.6094 48.5 28.0781C48.2917 27.224 48.5469 26.4792 49.2656 25.8438C49.974 25.2188 51.0417 24.9062 52.4688 24.9062C53.1458 24.9062 53.6875 25.1719 54.0938 25.7031C54.5 26.224 54.7031 27.0052 54.7031 28.0469V30.2188C51.6302 31.0104 49.5625 31.7604 48.5 32.4688C47.4375 33.1667 46.9062 34.1875 46.9062 35.5312C46.9062 36.2396 47.1458 36.9062 47.625 37.5312C48.1042 38.1458 48.9635 38.4531 50.2031 38.4531C50.6927 38.4531 51.151 38.375 51.5781 38.2188C52.0156 38.0625 52.4635 37.8125 52.9219 37.4688C53.3906 37.1146 53.6771 36.8906 53.7812 36.7969C53.8854 36.7031 54.0573 36.5417 54.2969 36.3125C54.5469 36.0729 54.6823 35.9427 54.7031 35.9219C54.8385 37.4531 55.4688 38.2188 56.5938 38.2188C56.875 38.2188 57.1979 38.1458 57.5625 38C57.9271 37.8542 58.2917 37.5677 58.6562 37.1406C59.0312 36.7135 59.2656 36.4323 59.3594 36.2969C59.4635 36.151 59.6146 35.9271 59.8125 35.625C60.0104 35.3125 60.1562 35.099 60.25 34.9844C60.1146 34.6927 59.8542 34.526 59.4688 34.4844C58.8958 35.3594 58.3125 35.7865 57.7188 35.7656C57.2917 35.7448 57.0781 35.4427 57.0781 34.8594V28.375C57.0781 26.7083 56.75 25.5312 56.0938 24.8438C55.4479 24.1458 54.3333 23.7969 52.75 23.7969C51.3229 23.7969 50.0833 24.1667 49.0312 24.9062C47.9896 25.6354 47.4688 26.5781 47.4688 27.7344C47.4688 28.3281 47.651 28.7917 48.0156 29.125C48.3802 29.4479 48.7969 29.6094 49.2656 29.6094C49.4115 29.401 49.4115 29.1562 49.2656 28.875ZM67.3906 41.875L68.3594 38.5781C67.7135 38.3177 67.1198 37.974 66.5781 37.5469C66.0469 37.1198 65.5885 36.6094 65.2031 36.0156C64.8177 35.4115 64.5208 34.724 64.3125 33.9531C64.1042 33.1823 64 32.3229 64 31.375C64 30.1562 64.2031 29.0417 64.6094 28.0312C65.0156 27.0208 65.5729 26.1562 66.2812 25.4375C66.9896 24.7083 67.8229 24.1458 68.7812 23.75C69.75 23.3542 70.7917 23.1562 71.9062 23.1562C72.7292 23.1562 73.4844 23.2552 74.1719 23.4531C74.8594 23.651 75.4479 23.9271 75.9375 24.2812C76.4375 24.6354 76.8229 25.0573 77.0938 25.5469C77.375 26.0365 77.5156 26.5729 77.5156 27.1562C77.5156 27.5208 77.4479 27.849 77.3125 28.1406C77.1875 28.4219 77.0104 28.6667 76.7812 28.875C76.5625 29.0833 76.2969 29.2448 75.9844 29.3594C75.6719 29.4635 75.3385 29.5156 74.9844 29.5156C73.6823 29.5156 73.0312 28.9427 73.0312 27.7969C73.0312 27.0781 73.4792 26.5521 74.375 26.2188C73.7812 25.8125 73.1615 25.5781 72.5156 25.5156C70.599 25.7969 69.6406 27.75 69.6406 31.375C69.6406 34.1042 70.651 35.5885 72.6719 35.8281C73.8906 35.6719 75.0781 34.8385 76.2344 33.3281C76.9219 33.401 77.4635 33.6875 77.8594 34.1875C77.599 34.8958 77.2604 35.5365 76.8438 36.1094C76.4375 36.6719 75.9792 37.1562 75.4688 37.5625C74.9583 37.9688 74.4062 38.2969 73.8125 38.5469C73.2188 38.8073 72.6042 38.9792 71.9688 39.0625C72.5 39.0625 72.9792 39.125 73.4062 39.25C73.8438 39.3854 74.2188 39.5729 74.5312 39.8125C74.8438 40.0625 75.0833 40.3646 75.25 40.7188C75.4167 41.0729 75.5 41.4792 75.5 41.9375C75.5 42.3958 75.401 42.8281 75.2031 43.2344C75.0052 43.6406 74.724 44 74.3594 44.3125C73.9948 44.625 73.5521 44.8698 73.0312 45.0469C72.5208 45.2344 71.9427 45.3281 71.2969 45.3281C70.6406 45.3281 70.0625 45.2865 69.5625 45.2031C69.0625 45.1198 68.6146 44.9896 68.2188 44.8125C67.8333 44.6458 67.4896 44.4271 67.1875 44.1562C66.8958 43.8854 66.625 43.5625 66.375 43.1875L67.3906 41.875ZM69.6719 39.7656L70.125 38.3594C70.4792 38.4219 70.8177 38.4531 71.1406 38.4531C72.4219 38.4531 73.6094 38.1094 74.7031 37.4219C75.8073 36.724 76.6146 35.6771 77.125 34.2812C76.9792 34.1146 76.776 34 76.5156 33.9375C76.2448 34.3229 76.0208 34.6094 75.8438 34.7969C75.6771 34.974 75.401 35.2292 75.0156 35.5625C74.6302 35.8854 74.1979 36.125 73.7188 36.2812C73.2396 36.4271 72.7135 36.5 72.1406 36.5C70.5156 36.5 69.3229 36.026 68.5625 35.0781C67.8125 34.1198 67.4375 32.8854 67.4375 31.375C67.4375 27 68.9271 24.8125 71.9062 24.8125C73.1042 24.8125 74.0469 25.0104 74.7344 25.4062C75.4323 25.8021 75.7812 26.3854 75.7812 27.1562C75.7812 27.7917 75.5156 28.1875 74.9844 28.3438C74.8385 28.6146 74.8385 28.8594 74.9844 29.0781C75.5156 29.0781 75.9635 28.8958 76.3281 28.5312C76.6927 28.1667 76.875 27.7083 76.875 27.1562C76.875 26.1771 76.4167 25.375 75.5 24.75C74.5833 24.1146 73.3854 23.7969 71.9062 23.7969C69.8438 23.7969 68.1146 24.4948 66.7188 25.8906C65.3333 27.2865 64.6406 29.1146 64.6406 31.375C64.6406 33.25 65.0677 34.7552 65.9219 35.8906C66.776 37.0156 67.8646 37.7708 69.1875 38.1562L68.3281 40.9375C68.8594 40.7917 69.3594 40.7188 69.8281 40.7188C70.8281 40.7188 71.3281 41.1458 71.3281 42C71.3281 42.4271 71.1719 42.776 70.8594 43.0469C70.5573 43.3281 70.151 43.4688 69.6406 43.4688C68.7448 43.4688 68.0625 43.224 67.5938 42.7344L67.1719 43.2188C67.8177 44.1979 68.8229 44.6875 70.1875 44.6875C71.1667 44.6875 71.9271 44.4167 72.4688 43.875C73.0104 43.3333 73.2812 42.6875 73.2812 41.9375C73.2812 41.2083 73.0833 40.651 72.6875 40.2656C72.3021 39.8906 71.776 39.7031 71.1094 39.7031C70.3802 39.7031 69.901 39.724 69.6719 39.7656ZM70.6875 42C70.6875 41.7188 70.5521 41.526 70.2812 41.4219C69.9167 41.4844 69.3906 41.6146 68.7031 41.8125C69.1823 42.3229 69.6667 42.6302 70.1562 42.7344C70.5104 42.6094 70.6875 42.3646 70.6875 42ZM84.5938 26.6406C85.0833 26.724 85.4688 26.9167 85.75 27.2188C86.0417 27.5104 86.1875 27.8854 86.1875 28.3438C86.1875 28.8958 86.0052 29.3542 85.6406 29.7188C85.276 30.0729 84.7969 30.25 84.2031 30.25C83.5885 30.25 83.0312 30.0312 82.5312 29.5938C82.0312 29.1562 81.7812 28.5365 81.7812 27.7344C81.7812 26.3698 82.4271 25.2656 83.7188 24.4219C85.0208 23.5781 86.7188 23.1562 88.8125 23.1562C90.8021 23.1562 92.1979 23.5573 93 24.3594C93.8125 25.151 94.2188 26.4896 94.2188 28.375V33.8438L95.2188 33.8125C96.0729 33.875 96.6667 34.2812 97 35.0312L96.5 35.8906C96.1771 36.3802 95.9062 36.7604 95.6875 37.0312C95.4792 37.2917 95.1771 37.5885 94.7812 37.9219C94.3854 38.2552 93.9219 38.4948 93.3906 38.6406C92.8594 38.7865 92.2396 38.8594 91.5312 38.8594C90.6562 38.8594 89.9948 38.5312 89.5469 37.875C88.4219 38.6875 86.9531 39.0938 85.1406 39.0938C84.349 39.0938 83.6719 38.9688 83.1094 38.7188C82.5573 38.4792 82.151 38.1562 81.8906 37.75C81.6406 37.3438 81.4635 36.9635 81.3594 36.6094C81.2552 36.2552 81.2031 35.8958 81.2031 35.5312C81.2031 34 81.7188 32.8542 82.75 32.0938C83.7812 31.3333 85.8646 30.5521 89 29.75V28.0469C89 27.2135 88.8229 26.6042 88.4688 26.2188C88.125 25.8333 87.6771 25.6406 87.125 25.6406C85.9479 25.6406 85.1042 25.974 84.5938 26.6406ZM89.6406 31.2188V34.4844C88.6406 35.8073 87.6198 36.4688 86.5781 36.4688C85.974 36.4688 85.4792 36.3229 85.0938 36.0312C84.7188 35.7396 84.5312 35.3281 84.5312 34.7969C84.5312 33.9427 84.8802 33.2396 85.5781 32.6875C86.2865 32.1354 87.6406 31.6458 89.6406 31.2188ZM89 34.2812V32.375C87.4896 32.9271 86.7344 33.7344 86.7344 34.7969C86.7344 35.2448 86.8958 35.5573 87.2188 35.7344C87.7708 35.5365 88.3646 35.0521 89 34.2812ZM84.2031 28.875C83.8385 28.875 83.5833 28.6094 83.4375 28.0781C83.2292 27.224 83.4844 26.4792 84.2031 25.8438C84.9115 25.2188 85.9792 24.9062 87.4062 24.9062C88.0833 24.9062 88.625 25.1719 89.0312 25.7031C89.4375 26.224 89.6406 27.0052 89.6406 28.0469V30.2188C86.5677 31.0104 84.5 31.7604 83.4375 32.4688C82.375 33.1667 81.8438 34.1875 81.8438 35.5312C81.8438 36.2396 82.0833 36.9062 82.5625 37.5312C83.0417 38.1458 83.901 38.4531 85.1406 38.4531C85.6302 38.4531 86.0885 38.375 86.5156 38.2188C86.9531 38.0625 87.401 37.8125 87.8594 37.4688C88.3281 37.1146 88.6146 36.8906 88.7188 36.7969C88.8229 36.7031 88.9948 36.5417 89.2344 36.3125C89.4844 36.0729 89.6198 35.9427 89.6406 35.9219C89.776 37.4531 90.4062 38.2188 91.5312 38.2188C91.8125 38.2188 92.1354 38.1458 92.5 38C92.8646 37.8542 93.2292 37.5677 93.5938 37.1406C93.9688 36.7135 94.2031 36.4323 94.2969 36.2969C94.401 36.151 94.5521 35.9271 94.75 35.625C94.9479 35.3125 95.0938 35.099 95.1875 34.9844C95.0521 34.6927 94.7917 34.526 94.4062 34.4844C93.8333 35.3594 93.25 35.7865 92.6562 35.7656C92.2292 35.7448 92.0156 35.4427 92.0156 34.8594V28.375C92.0156 26.7083 91.6875 25.5312 91.0312 24.8438C90.3854 24.1458 89.2708 23.7969 87.6875 23.7969C86.2604 23.7969 85.0208 24.1667 83.9688 24.9062C82.9271 25.6354 82.4062 26.5781 82.4062 27.7344C82.4062 28.3281 82.5885 28.7917 82.9531 29.125C83.3177 29.4479 83.7344 29.6094 84.2031 29.6094C84.349 29.401 84.349 29.1562 84.2031 28.875ZM110.112 38.128C106.122 38.128 103.168 36.9973 101.248 34.736C100.565 33.9253 100.01 32.848 99.5838 31.504C99.1571 30.16 98.9438 28.528 98.9438 26.608C98.9438 24.688 99.2531 22.9707 99.8718 21.456C100.512 19.92 101.376 18.736 102.464 17.904C104.576 16.3467 107.125 15.568 110.112 15.568C111.072 15.568 112.01 15.6427 112.928 15.792C113.845 15.92 114.528 16.0587 114.976 16.208L115.648 16.432L115.552 16.752C113.888 16.176 112.074 15.888 110.112 15.888C107.85 15.888 105.962 16.624 104.448 18.096C103.296 19.184 102.485 20.784 102.016 22.896C101.738 24.0907 101.6 25.552 101.6 27.28C101.6 29.008 101.845 30.608 102.336 32.08C102.826 33.5307 103.381 34.608 104 35.312C104.64 36.016 105.408 36.5813 106.304 37.008C107.2 37.4133 107.914 37.648 108.448 37.712C108.981 37.776 109.61 37.808 110.336 37.808C111.082 37.808 112.074 37.7227 113.312 37.552V30.96H109.44V30.64H117.344V30.96H115.968V37.264C114.346 37.84 112.394 38.128 110.112 38.128ZM125.205 23.376V22.704C124.245 23.088 123.37 23.8667 122.581 25.04C121.791 26.192 121.375 27.28 121.333 28.304V38H119.093V22H121.333V27.088C121.674 25.8507 122.325 24.688 123.285 23.6C124.245 22.4907 125.333 21.9147 126.549 21.872H126.677C127.103 21.872 127.455 22.0213 127.733 22.32C128.031 22.5973 128.181 22.9493 128.181 23.376C128.181 23.8027 128.031 24.1547 127.733 24.432C127.455 24.7093 127.103 24.848 126.677 24.848C126.25 24.848 125.898 24.7093 125.621 24.432C125.343 24.1547 125.205 23.8027 125.205 23.376ZM131.8 30.192C131.8 32.8373 132.258 34.7787 133.176 36.016C134.114 37.2533 135.341 37.872 136.856 37.872C138.989 37.872 140.888 37.552 142.552 36.912L142.648 37.136C140.941 37.7973 139.01 38.128 136.856 38.128C134.722 38.128 132.984 37.488 131.64 36.208C130.296 34.928 129.624 32.9547 129.624 30.288C129.624 27.6213 130.328 25.552 131.736 24.08C133.144 22.608 134.936 21.872 137.112 21.872C138.861 21.872 140.333 22.3947 141.528 23.44C142.722 24.4853 143.32 26.032 143.32 28.08C143.32 28.1867 143.32 28.2933 143.32 28.4H131.896C131.832 28.976 131.8 29.5733 131.8 30.192ZM141.144 28.144C141.122 26.096 140.728 24.5813 139.96 23.6C139.192 22.6187 138.2 22.128 136.984 22.128C135.768 22.128 134.68 22.6613 133.72 23.728C132.781 24.7947 132.184 26.2667 131.928 28.144H141.144ZM147.769 30.192C147.769 32.8373 148.227 34.7787 149.145 36.016C150.083 37.2533 151.31 37.872 152.825 37.872C154.958 37.872 156.857 37.552 158.521 36.912L158.617 37.136C156.91 37.7973 154.979 38.128 152.825 38.128C150.691 38.128 148.953 37.488 147.609 36.208C146.265 34.928 145.593 32.9547 145.593 30.288C145.593 27.6213 146.297 25.552 147.705 24.08C149.113 22.608 150.905 21.872 153.081 21.872C154.83 21.872 156.302 22.3947 157.497 23.44C158.691 24.4853 159.289 26.032 159.289 28.08C159.289 28.1867 159.289 28.2933 159.289 28.4H147.865C147.801 28.976 147.769 29.5733 147.769 30.192ZM157.113 28.144C157.091 26.096 156.697 24.5813 155.929 23.6C155.161 22.6187 154.169 22.128 152.953 22.128C151.737 22.128 150.649 22.6613 149.689 23.728C148.75 24.7947 148.153 26.2667 147.897 28.144H157.113ZM173.873 38C172.998 38 172.326 37.808 171.857 37.424C171.409 37.04 171.174 36.656 171.153 36.272L171.121 35.728V25.68C171.121 23.9947 170.683 22.9173 169.809 22.448C169.361 22.2347 168.806 22.128 168.145 22.128C166.779 22.128 165.553 22.672 164.465 23.76C163.377 24.8267 162.833 25.7867 162.833 26.64V38H160.593V22H162.833V25.648C163.195 24.7307 163.867 23.8773 164.849 23.088C165.83 22.2773 166.907 21.872 168.081 21.872C169.254 21.872 170.203 21.9893 170.929 22.224C171.675 22.4373 172.219 22.7467 172.561 23.152C173.094 23.8133 173.361 24.6667 173.361 25.712V35.728C173.361 36.3467 173.478 36.8267 173.713 37.168C173.969 37.488 174.225 37.6587 174.481 37.68L174.833 37.744H175.825V38H173.873Z" fill="black"/>
<path d="M79.875 21.7344H81.125C81.4896 20.9844 81.8906 20.4271 82.3281 20.0625C82.7656 19.6979 83.3281 19.5156 84.0156 19.5156C84.2865 19.5156 84.5938 19.5677 84.9375 19.6719C85.2812 19.7656 85.5677 19.8594 85.7969 19.9531C86.0365 20.0469 86.3594 20.1927 86.7656 20.3906C87.1719 20.5781 87.4688 20.7135 87.6562 20.7969C88.9792 21.4219 90.0677 21.7344 90.9219 21.7344C92.1615 21.7344 93.2865 21.2708 94.2969 20.3438C95.3073 19.4062 95.974 18.1719 96.2969 16.6406H95.0156C94.5677 18.3073 93.6406 19.1406 92.2344 19.1406C91.5469 19.1406 90.7344 18.9062 89.7969 18.4375C88.0052 17.5 86.5104 17.0312 85.3125 17.0312C84.5521 17.0312 83.8385 17.2031 83.1719 17.5469C82.5156 17.8802 81.9688 18.3229 81.5312 18.875C81.0938 19.4167 80.75 19.9115 80.5 20.3594C80.2604 20.8073 80.0521 21.2656 79.875 21.7344ZM79.875 22.375L79.2656 21.5C79.4219 21.1146 79.5885 20.7396 79.7656 20.375C79.9531 20 80.2188 19.5573 80.5625 19.0469C80.9167 18.526 81.3021 18.0885 81.7188 17.7344C82.1354 17.3698 82.6562 17.0573 83.2812 16.7969C83.9167 16.526 84.5938 16.3906 85.3125 16.3906C86.3438 16.3906 87.2917 16.5156 88.1562 16.7656C89.0208 17.0052 89.8802 17.3125 90.7344 17.6875C91.5885 18.0521 92.2604 18.3021 92.75 18.4375C93.5521 18.2188 94.1458 17.4062 94.5312 16H98.2188C97.7708 17.9792 96.9167 19.5365 95.6562 20.6719C94.3958 21.8073 92.8177 22.375 90.9219 22.375C90.0469 22.375 88.8906 22.0521 87.4531 21.4062C86.026 20.75 85.0677 20.3542 84.5781 20.2188C83.8802 20.4167 83.2396 21.1354 82.6562 22.375H79.875Z" fill="#CE0000"/>
</svg>
