<svg width="142" height="32" viewBox="0 0 142 32" fill="none" xmlns="http://www.w3.org/2000/svg">
<path d="M14.4 27H2.24V4.6H4.896V26.68H14.4V27ZM23.614 27.128C21.374 27.128 19.55 26.488 18.142 25.208C16.734 23.928 16.03 21.9547 16.03 19.288C16.03 16.6213 16.7553 14.552 18.206 13.08C19.678 11.608 21.534 10.872 23.774 10.872C26.0353 10.872 27.87 11.512 29.278 12.792C30.686 14.072 31.39 16.0453 31.39 18.712C31.39 21.3787 30.654 23.448 29.182 24.92C27.7313 26.392 25.8753 27.128 23.614 27.128ZM23.838 11.128C22.2167 11.128 20.8727 11.8533 19.806 13.304C18.7393 14.7333 18.206 16.7387 18.206 19.32C18.206 21.88 18.6967 23.7787 19.678 25.016C20.6593 26.2533 21.9607 26.872 23.582 26.872C25.2033 26.872 26.5473 26.1573 27.614 24.728C28.6807 23.2773 29.214 21.272 29.214 18.712C29.214 16.1307 28.7233 14.2213 27.742 12.984C26.7607 11.7467 25.4593 11.128 23.838 11.128ZM41.5203 27.128C39.2803 27.128 37.4563 26.488 36.0483 25.208C34.6403 23.928 33.9363 21.9547 33.9363 19.288C33.9363 16.6213 34.6616 14.552 36.1123 13.08C37.5843 11.608 39.4403 10.872 41.6803 10.872C43.9416 10.872 45.7763 11.512 47.1843 12.792C48.5923 14.072 49.2963 16.0453 49.2963 18.712C49.2963 21.3787 48.5603 23.448 47.0883 24.92C45.6376 26.392 43.7816 27.128 41.5203 27.128ZM41.7443 11.128C40.1229 11.128 38.7789 11.8533 37.7123 13.304C36.6456 14.7333 36.1123 16.7387 36.1123 19.32C36.1123 21.88 36.6029 23.7787 37.5843 25.016C38.5656 26.2533 39.8669 26.872 41.4883 26.872C43.1096 26.872 44.4536 26.1573 45.5203 24.728C46.5869 23.2773 47.1203 21.272 47.1203 18.712C47.1203 16.1307 46.6296 14.2213 45.6483 12.984C44.6669 11.7467 43.3656 11.128 41.7443 11.128ZM53.7775 3V18.936L60.8175 11H61.1375L55.9215 16.888L62.8015 27H60.5615L54.6415 18.296L53.7775 19.288V27H51.5375V3H53.7775Z" fill="black"/>
<path d="M82.552 25.624V27H59V25.624H66.104C64.4187 24.6213 63.0853 23.256 62.104 21.528C61.144 19.8 60.664 17.848 60.664 15.672C60.664 12.3867 61.7947 9.63467 64.056 7.416C66.3387 5.19733 69.208 4.088 72.664 4.088C76.1413 4.088 79.0427 5.368 81.368 7.928L78.968 10.552C77.9013 9.528 76.888 8.81333 75.928 8.408C74.9893 8.00267 73.88 7.8 72.6 7.8C70.3387 7.8 68.44 8.536 66.904 10.008C65.368 11.4587 64.6 13.3253 64.6 15.608C64.6 17.8693 65.3573 19.768 66.872 21.304C68.408 22.8187 70.2213 23.576 72.312 23.576C73.6133 23.576 74.7333 23.3627 75.672 22.936C76.6107 22.488 77.592 21.784 78.616 20.824L81.048 23.32C80.1093 24.344 79.2133 25.112 78.36 25.624H82.552ZM85.6665 25.624V4.632H89.4425V25.624H92.5465V27H82.5625V25.624H85.6665ZM95.6353 25.624V4.632H99.4113L112.403 21.336V4.632H116.179V25.624H119.283V27H112.083L99.4113 10.68V27H92.5312V25.624H95.6353ZM122.385 25.624V4.632H138.097V8.184H126.161V14.104H136.881V17.464H126.161V23.448H138.481V25.624H141.585V27H119.281V25.624H122.385Z" fill="#C40B0B"/>
<path d="M14.5 18L15.5 17.5L16.5 18.5" stroke="black"/>
<path d="M30.5 20L32.5 19.5L34.5 20" stroke="black"/>
<circle cx="24" cy="20" r="3" fill="#BABEB9"/>
<circle cx="41" cy="20" r="3" fill="#BABEB9"/>
<circle cx="24" cy="20" r="2" fill="#0F1117"/>
<circle cx="41" cy="20" r="2" fill="#0F1117"/>
</svg>
